<?xml version="1.0" standalone="no"?>
<!DOCTYPE svg PUBLIC "-//W3C//DTD SVG 20010904//EN"
 "http://www.w3.org/TR/2001/REC-SVG-20010904/DTD/svg10.dtd">
<svg version="1.0" xmlns="http://www.w3.org/2000/svg"
 width="200.000000pt" height="200.000000pt" viewBox="0 0 200.000000 200.000000"
 preserveAspectRatio="xMidYMid meet">
<metadata>
Created by potrace 1.11, written by Peter Selinger 2001-2013
</metadata>
<g transform="translate(0.000000,200.000000) scale(0.100000,-0.100000)"
fill="#000000" stroke="none">
<path d="M514 1803 l1 -98 100 0 100 0 0 95 0 95 -101 3 -100 3 0 -98z"/>
<path d="M747 1893 c-3 -7 -2 -140 2 -180 1 -14 168 -18 187 -5 5 4 10 49 11
100 l0 92 -98 0 c-54 0 -100 -3 -102 -7z"/>
<path d="M1053 1803 l2 -98 98 -1 c82 -1 97 1 98 15 1 9 2 53 3 98 l1 83 -102
0 -101 0 1 -97z"/>
<path d="M1286 1813 c1 -48 3 -93 3 -100 1 -8 29 -11 98 -10 l98 2 0 95 0 95
-100 3 -101 3 2 -88z"/>
<path d="M483 1580 c-28 -3 -55 -9 -60 -14 -14 -13 -11 -1105 3 -1124 11 -15
64 -16 565 -17 338 -1 563 3 577 9 12 5 22 16 23 25 1 9 2 257 3 550 1 463 -1
537 -14 554 -14 17 -42 18 -530 20 -283 1 -538 0 -567 -3z m463 -315 l1 -210
-216 0 -216 0 -2 190 c-1 105 0 200 3 211 4 21 7 21 216 20 l213 -1 1 -210z
m524 209 c13 -3 15 -33 15 -201 0 -109 -3 -203 -7 -208 -5 -8 -381 -14 -419
-6 -5 1 -6 413 0 417 4 4 398 2 411 -2z m-524 -731 c0 -115 -3 -210 -7 -213
-5 -4 -394 -5 -419 -1 -3 1 -6 96 -6 211 l0 210 216 0 216 0 0 -207z m540 -3
c0 -142 -3 -210 -10 -211 -15 -1 -354 -1 -392 0 l-32 1 1 210 1 210 216 0 216
0 0 -210z"/>
<path d="M630 1269 l0 -99 100 0 100 0 0 98 0 98 -100 0 -100 1 0 -98z"/>
<path d="M1170 1268 l0 -98 100 0 100 0 0 98 0 98 -100 0 -100 0 0 -98z"/>
<path d="M641 832 c-7 -2 -11 -36 -11 -98 0 -83 2 -94 18 -95 24 -1 110 -1
150 0 l33 1 -3 97 -3 97 -86 1 c-47 0 -91 -1 -98 -3z"/>
<path d="M1181 832 c-7 -2 -11 -37 -11 -98 0 -77 3 -94 15 -95 8 0 35 0 60 0
25 0 63 0 85 0 l40 1 0 95 c0 52 -3 96 -7 96 -21 4 -172 4 -182 1z"/>
<path d="M100 1380 l0 -99 100 0 100 0 0 99 0 98 -100 1 -100 1 0 -100z"/>
<path d="M1700 1379 l0 -99 100 0 100 0 0 99 0 99 -100 0 -100 0 0 -99z"/>
<path d="M100 1152 l0 -97 98 0 97 0 3 98 3 97 -101 0 -100 0 0 -98z"/>
<path d="M1700 1152 l0 -98 98 1 97 0 3 98 3 97 -101 0 -100 0 0 -98z"/>
<path d="M100 851 l0 -100 100 1 100 1 0 99 0 98 -100 0 -100 0 0 -99z"/>
<path d="M1700 851 l0 -100 100 1 100 0 0 99 0 99 -100 0 -100 0 0 -99z"/>
<path d="M100 628 c0 -71 3 -98 13 -99 6 0 51 -1 100 -2 l87 -2 0 98 c0 85 -2
97 -17 98 -10 1 -55 2 -100 3 l-83 1 0 -97z"/>
<path d="M1717 722 c-14 -3 -17 -18 -17 -97 0 -65 4 -94 13 -97 10 -3 99 -3
170 1 15 1 17 13 17 96 0 84 -2 95 -17 96 -100 3 -152 3 -166 1z"/>
<path d="M517 286 c-2 -6 -3 -49 -3 -96 l1 -85 100 -3 100 -3 0 96 c0 52 -2
96 -5 96 -3 1 -46 3 -97 4 -60 1 -93 -2 -96 -9z"/>
<path d="M749 281 c-4 -82 -5 -149 -1 -164 4 -16 15 -17 101 -15 l96 3 1 93
c1 50 -1 92 -5 93 -3 1 -48 2 -98 4 -80 2 -93 0 -94 -14z"/>
<path d="M1062 291 c-5 -3 -9 -48 -9 -98 l-1 -93 98 0 c70 0 99 4 102 13 3 10
3 118 -1 167 -1 12 -18 15 -90 16 -49 1 -93 -2 -99 -5z"/>
<path d="M1293 291 c-7 -5 -9 -145 -4 -184 1 -4 45 -6 99 -5 l97 3 0 95 0 95
-92 1 c-51 0 -96 -2 -100 -5z"/>
</g>
</svg>
